<svg xmlns="http://www.w3.org/2000/svg" width="800" height="318" fill="none" viewBox="0 0 800 318"><path fill="#5f6368" d="M378.369 155.23v93.092h-29.557V18.372h78.348a70.78 70.78 0 0 1 50.736 19.905c13.739 12.366 21.48 30.06 21.178 48.524a63.7 63.7 0 0 1-21.178 48.825c-13.706 13.069-30.629 19.604-50.736 19.57zm0-108.541v80.291h49.529a38.96 38.96 0 0 0 29.221-11.896c15.515-15.08 15.884-39.911.771-55.427-.268-.268-.503-.536-.771-.77-7.54-8.077-18.196-12.5-29.221-12.199zm188.799 39.174c21.849 0 39.073 5.83 51.707 17.492 12.633 11.662 18.933 27.68 18.933 47.987v96.98h-28.249v-21.849h-1.273c-12.232 17.995-28.518 26.976-48.825 26.976-17.326 0-31.836-5.127-43.497-15.415a49.23 49.23 0 0 1-17.493-38.537c0-16.286 6.166-29.221 18.464-38.839 12.299-9.617 28.719-14.443 49.295-14.443 17.526 0 32.002 3.217 43.329 9.618v-6.769a33.63 33.63 0 0 0-12.198-26.139 41.82 41.82 0 0 0-28.518-10.757c-16.487 0-29.556 6.971-39.173 20.877l-26.005-16.386c14.276-20.542 35.455-30.797 63.503-30.797m-38.236 114.304a23.65 23.65 0 0 0 9.785 19.269c6.535 5.127 14.645 7.875 22.955 7.707a47.2 47.2 0 0 0 33.243-13.806c9.785-9.215 14.677-20.006 14.677-32.438-9.215-7.339-22.05-11.025-38.537-11.025-11.997 0-22.016 2.882-30.025 8.679-8.076 5.898-12.098 13.036-12.098 21.614M800 90.99l-98.622 226.699h-30.495l36.594-79.32L642.6 90.989h32.104l46.881 113.032h.637L767.83 90.99z"/><path fill="#4285f4" d="M258.97 135.123c0-9.014-.737-17.995-2.278-26.875H132.099v50.869h71.344a61.1 61.1 0 0 1-26.373 40.146v33.041h42.592c24.932-22.955 39.308-56.968 39.308-97.181"/><path fill="#34a853" d="M132.099 264.24c35.655 0 65.681-11.696 87.563-31.902l-42.592-33.042c-11.862 8.043-27.11 12.634-44.971 12.634-34.449 0-63.704-23.223-74.16-54.522H14.076v34.047c22.418 44.636 68.093 72.785 118.024 72.785"/><path fill="#fbbc04" d="M57.94 157.408a79.15 79.15 0 0 1 0-50.568V72.793H14.075a132.09 132.09 0 0 0 0 118.661z"/><path fill="#ea4335" d="M132.099 52.318a71.75 71.75 0 0 1 50.668 19.805l37.733-37.7A127.1 127.1 0 0 0 132.099.008c-49.93 0-95.606 28.183-118.024 72.785L57.94 106.84c10.455-31.299 39.71-54.522 74.159-54.522"/></svg>