<svg width="36" height="23" viewBox="0 0 36 23" fill="none" xmlns="http://www.w3.org/2000/svg">
<path d="M22.83 2.35547H13.1155V19.6499H22.83V2.35547Z" fill="#FF5F00"/>
<path d="M13.7323 11.0025C13.7323 7.64143 15.3051 4.4331 17.9574 2.35532C13.1463 -1.40301 6.14568 -0.578012 2.35238 4.21921C-1.41009 8.98588 -0.577413 15.8914 4.26445 19.6498C8.30448 22.797 13.9482 22.797 17.9882 19.6498C15.3051 17.572 13.7323 14.3637 13.7323 11.0025Z" fill="#EB001B"/>
<path d="M35.937 11.0025C35.937 17.0831 30.9718 22.0025 24.8347 22.0025C22.3366 22.0025 19.9311 21.1775 17.9882 19.6498C22.7992 15.8914 23.6319 8.98588 19.8386 4.18865C19.2835 3.51643 18.6667 2.87477 17.9882 2.35532C22.7992 -1.40301 29.7999 -0.578012 33.5624 4.21921C35.1044 6.14421 35.937 8.52754 35.937 11.0025Z" fill="#F79E1B"/>
</svg>
